<mxfile host="Electron" agent="Mozilla/5.0 (Windows NT 10.0; Win64; x64) AppleWebKit/537.36 (KHTML, like Gecko) draw.io/24.7.17 Chrome/128.0.6613.36 Electron/32.0.1 Safari/537.36" version="24.7.17">
  <diagram name="Page-1" id="Aee3M4GxarO4L5fpj3BS">
    <mxGraphModel dx="1276" dy="606" grid="1" gridSize="10" guides="1" tooltips="1" connect="1" arrows="1" fold="1" page="1" pageScale="1" pageWidth="850" pageHeight="1100" math="0" shadow="0">
      <root>
        <mxCell id="0" />
        <mxCell id="1" parent="0" />
        <mxCell id="Z1sriqrJHSIXOFoPs6_d-1" value="start" style="ellipse;whiteSpace=wrap;html=1;" vertex="1" parent="1">
          <mxGeometry x="290" y="50" width="120" height="70" as="geometry" />
        </mxCell>
        <mxCell id="Z1sriqrJHSIXOFoPs6_d-2" value="" style="endArrow=classic;html=1;rounded=0;exitX=0.5;exitY=1;exitDx=0;exitDy=0;entryX=0.5;entryY=0;entryDx=0;entryDy=0;" edge="1" parent="1" source="Z1sriqrJHSIXOFoPs6_d-1" target="Z1sriqrJHSIXOFoPs6_d-3">
          <mxGeometry width="50" height="50" relative="1" as="geometry">
            <mxPoint x="400" y="340" as="sourcePoint" />
            <mxPoint x="160" y="190" as="targetPoint" />
          </mxGeometry>
        </mxCell>
        <mxCell id="Z1sriqrJHSIXOFoPs6_d-3" value="nhập 2 số a và b" style="shape=parallelogram;perimeter=parallelogramPerimeter;whiteSpace=wrap;html=1;fixedSize=1;" vertex="1" parent="1">
          <mxGeometry x="290" y="180" width="120" height="60" as="geometry" />
        </mxCell>
        <mxCell id="Z1sriqrJHSIXOFoPs6_d-4" value="a != 0" style="rhombus;whiteSpace=wrap;html=1;" vertex="1" parent="1">
          <mxGeometry x="280" y="300" width="140" height="80" as="geometry" />
        </mxCell>
        <mxCell id="Z1sriqrJHSIXOFoPs6_d-5" value="in x = -b/a" style="shape=parallelogram;perimeter=parallelogramPerimeter;whiteSpace=wrap;html=1;fixedSize=1;" vertex="1" parent="1">
          <mxGeometry x="440" y="430" width="130" height="60" as="geometry" />
        </mxCell>
        <mxCell id="Z1sriqrJHSIXOFoPs6_d-6" value="" style="endArrow=classic;html=1;rounded=0;exitX=0.5;exitY=1;exitDx=0;exitDy=0;entryX=0.5;entryY=0;entryDx=0;entryDy=0;" edge="1" parent="1" source="Z1sriqrJHSIXOFoPs6_d-3" target="Z1sriqrJHSIXOFoPs6_d-4">
          <mxGeometry width="50" height="50" relative="1" as="geometry">
            <mxPoint x="400" y="320" as="sourcePoint" />
            <mxPoint x="450" y="270" as="targetPoint" />
          </mxGeometry>
        </mxCell>
        <mxCell id="Z1sriqrJHSIXOFoPs6_d-7" value="" style="endArrow=classic;html=1;rounded=0;exitX=1;exitY=1;exitDx=0;exitDy=0;entryX=0.5;entryY=0;entryDx=0;entryDy=0;" edge="1" parent="1" source="Z1sriqrJHSIXOFoPs6_d-4" target="Z1sriqrJHSIXOFoPs6_d-5">
          <mxGeometry width="50" height="50" relative="1" as="geometry">
            <mxPoint x="400" y="420" as="sourcePoint" />
            <mxPoint x="450" y="370" as="targetPoint" />
          </mxGeometry>
        </mxCell>
        <mxCell id="Z1sriqrJHSIXOFoPs6_d-8" value="" style="endArrow=classic;html=1;rounded=0;exitX=0;exitY=1;exitDx=0;exitDy=0;" edge="1" parent="1" source="Z1sriqrJHSIXOFoPs6_d-4">
          <mxGeometry width="50" height="50" relative="1" as="geometry">
            <mxPoint x="400" y="420" as="sourcePoint" />
            <mxPoint x="257.7631578947369" y="432.5" as="targetPoint" />
          </mxGeometry>
        </mxCell>
        <mxCell id="Z1sriqrJHSIXOFoPs6_d-10" value="true" style="text;html=1;align=center;verticalAlign=middle;resizable=0;points=[];autosize=1;strokeColor=none;fillColor=none;" vertex="1" parent="1">
          <mxGeometry x="425" y="368" width="40" height="30" as="geometry" />
        </mxCell>
        <mxCell id="Z1sriqrJHSIXOFoPs6_d-11" value="b != 0" style="rhombus;whiteSpace=wrap;html=1;" vertex="1" parent="1">
          <mxGeometry x="190" y="430" width="140" height="70" as="geometry" />
        </mxCell>
        <mxCell id="Z1sriqrJHSIXOFoPs6_d-12" value="false" style="text;html=1;align=center;verticalAlign=middle;resizable=0;points=[];autosize=1;strokeColor=none;fillColor=none;" vertex="1" parent="1">
          <mxGeometry x="250" y="380" width="50" height="30" as="geometry" />
        </mxCell>
        <mxCell id="Z1sriqrJHSIXOFoPs6_d-14" value="in vô nghiệm" style="shape=parallelogram;perimeter=parallelogramPerimeter;whiteSpace=wrap;html=1;fixedSize=1;" vertex="1" parent="1">
          <mxGeometry x="90" y="520" width="120" height="60" as="geometry" />
        </mxCell>
        <mxCell id="Z1sriqrJHSIXOFoPs6_d-15" value="in nghiệm đúng&lt;br&gt;với mọi x" style="shape=parallelogram;perimeter=parallelogramPerimeter;whiteSpace=wrap;html=1;fixedSize=1;" vertex="1" parent="1">
          <mxGeometry x="290" y="520" width="120" height="60" as="geometry" />
        </mxCell>
        <mxCell id="Z1sriqrJHSIXOFoPs6_d-16" value="" style="endArrow=classic;html=1;rounded=0;exitX=1;exitY=1;exitDx=0;exitDy=0;" edge="1" parent="1" source="Z1sriqrJHSIXOFoPs6_d-11">
          <mxGeometry width="50" height="50" relative="1" as="geometry">
            <mxPoint x="289" y="490" as="sourcePoint" />
            <mxPoint x="350" y="520" as="targetPoint" />
          </mxGeometry>
        </mxCell>
        <mxCell id="Z1sriqrJHSIXOFoPs6_d-17" value="" style="endArrow=classic;html=1;rounded=0;exitX=0;exitY=1;exitDx=0;exitDy=0;entryX=0.643;entryY=0.037;entryDx=0;entryDy=0;entryPerimeter=0;" edge="1" parent="1" source="Z1sriqrJHSIXOFoPs6_d-11" target="Z1sriqrJHSIXOFoPs6_d-14">
          <mxGeometry width="50" height="50" relative="1" as="geometry">
            <mxPoint x="400" y="520" as="sourcePoint" />
            <mxPoint x="450" y="470" as="targetPoint" />
          </mxGeometry>
        </mxCell>
        <mxCell id="Z1sriqrJHSIXOFoPs6_d-18" value="true" style="text;html=1;align=center;verticalAlign=middle;resizable=0;points=[];autosize=1;strokeColor=none;fillColor=none;" vertex="1" parent="1">
          <mxGeometry x="150" y="488" width="40" height="30" as="geometry" />
        </mxCell>
        <mxCell id="Z1sriqrJHSIXOFoPs6_d-19" value="false" style="text;html=1;align=center;verticalAlign=middle;resizable=0;points=[];autosize=1;strokeColor=none;fillColor=none;" vertex="1" parent="1">
          <mxGeometry x="325" y="478" width="50" height="30" as="geometry" />
        </mxCell>
        <mxCell id="Z1sriqrJHSIXOFoPs6_d-20" value="end" style="ellipse;whiteSpace=wrap;html=1;" vertex="1" parent="1">
          <mxGeometry x="440" y="630" width="120" height="80" as="geometry" />
        </mxCell>
        <mxCell id="Z1sriqrJHSIXOFoPs6_d-21" value="" style="endArrow=classic;html=1;rounded=0;exitX=0.437;exitY=1.003;exitDx=0;exitDy=0;exitPerimeter=0;entryX=0.5;entryY=0;entryDx=0;entryDy=0;" edge="1" parent="1" source="Z1sriqrJHSIXOFoPs6_d-5" target="Z1sriqrJHSIXOFoPs6_d-20">
          <mxGeometry width="50" height="50" relative="1" as="geometry">
            <mxPoint x="400" y="620" as="sourcePoint" />
            <mxPoint x="450" y="570" as="targetPoint" />
          </mxGeometry>
        </mxCell>
        <mxCell id="Z1sriqrJHSIXOFoPs6_d-22" value="" style="endArrow=classic;html=1;rounded=0;exitX=0.597;exitY=1.01;exitDx=0;exitDy=0;exitPerimeter=0;entryX=0.04;entryY=0.322;entryDx=0;entryDy=0;entryPerimeter=0;" edge="1" parent="1" source="Z1sriqrJHSIXOFoPs6_d-15" target="Z1sriqrJHSIXOFoPs6_d-20">
          <mxGeometry width="50" height="50" relative="1" as="geometry">
            <mxPoint x="400" y="620" as="sourcePoint" />
            <mxPoint x="450" y="570" as="targetPoint" />
          </mxGeometry>
        </mxCell>
        <mxCell id="Z1sriqrJHSIXOFoPs6_d-23" value="" style="endArrow=classic;html=1;rounded=0;exitX=0.5;exitY=1;exitDx=0;exitDy=0;entryX=0.04;entryY=0.362;entryDx=0;entryDy=0;entryPerimeter=0;" edge="1" parent="1" source="Z1sriqrJHSIXOFoPs6_d-14" target="Z1sriqrJHSIXOFoPs6_d-20">
          <mxGeometry width="50" height="50" relative="1" as="geometry">
            <mxPoint x="400" y="620" as="sourcePoint" />
            <mxPoint x="450" y="570" as="targetPoint" />
          </mxGeometry>
        </mxCell>
      </root>
    </mxGraphModel>
  </diagram>
</mxfile>
